<svg width="149" height="70" viewBox="0 0 149 70" fill="none" xmlns="http://www.w3.org/2000/svg">
<path d="M16.1312 56.1553L10.7694 56.3938C10.4014 56.4169 9.94789 56.4117 9.409 56.378C9.63303 56.522 9.83903 56.6632 10.027 56.8015C10.2169 56.9341 10.3839 57.0592 10.5283 57.1767L14.6668 60.5624L16.1312 56.1553ZM21.8953 54.0779L21.4299 55.4786C21.3769 55.638 21.2935 55.7557 21.1797 55.8317C21.066 55.9077 20.9389 55.9477 20.7985 55.9516L17.594 56.0913L15.7976 61.4977L18.2813 63.5274C18.3762 63.6032 18.4513 63.7103 18.5064 63.8488C18.5559 63.9853 18.5551 64.1305 18.504 64.2842L18.0386 65.6849L7.39717 56.7243L8.00732 54.888L21.8953 54.0779Z" fill="#999999"/>
<path d="M32.0384 35.5351L33.2562 36.5897L28.4135 42.1824L18.6433 33.7224L19.8982 32.2732L28.4505 39.6786L32.0384 35.5351Z" fill="#999999"/>
<path d="M44.6245 27.3942L42.9801 28.397L36.2512 17.3629L37.8955 16.3601L44.6245 27.3942Z" fill="#999999"/>
<path d="M56.3487 14.6982C56.4862 15.4599 56.7126 16.1232 57.028 16.6882C57.3423 17.2472 57.7291 17.7017 58.1886 18.0517C58.6481 18.4016 59.1667 18.6403 59.7445 18.7677C60.3272 18.8881 60.9521 18.8881 61.6193 18.7677C62.2866 18.6473 62.8691 18.4293 63.367 18.1139C63.8697 17.7914 64.2722 17.3865 64.5744 16.8991C64.8826 16.4106 65.0861 15.8495 65.1852 15.2158C65.2831 14.5763 65.2633 13.8756 65.1259 13.1139C64.9894 12.3581 64.7636 11.6978 64.4482 11.1328C64.1328 10.5678 63.7454 10.1104 63.2859 9.76042C62.8324 9.40941 62.3137 9.17073 61.73 9.04441C61.1522 8.91702 60.5297 8.91354 59.8625 9.03396C59.1952 9.15439 58.6103 9.37582 58.1076 9.69824C57.6107 10.0196 57.2083 10.4245 56.9001 10.913C56.592 11.4015 56.389 11.9656 56.291 12.6051C56.193 13.2447 56.2123 13.9424 56.3487 14.6982ZM69.2824 21.6006L67.7236 21.8819C67.4933 21.9235 67.2837 21.9278 67.0949 21.8948C66.9071 21.8678 66.7215 21.7854 66.5381 21.6478L63.9727 19.6964C63.3616 20.0262 62.6752 20.2599 61.9135 20.3973C60.9747 20.5668 60.0868 20.5624 59.2498 20.3843C58.4188 20.205 57.674 19.8791 57.0156 19.4066C56.3621 18.927 55.8103 18.3194 55.3605 17.5836C54.9096 16.8419 54.5983 15.9957 54.4267 15.0451C54.2562 14.1003 54.2525 13.2017 54.4157 12.3492C54.5789 11.4966 54.8833 10.7344 55.3291 10.0626C55.7797 9.38373 56.3629 8.81508 57.0789 8.35662C57.7997 7.89119 58.6295 7.57375 59.5683 7.4043C60.5131 7.23378 61.4015 7.24109 62.2336 7.42623C63.0647 7.60546 63.8099 7.93432 64.4694 8.41279C65.1278 8.88535 65.6795 9.49302 66.1245 10.2358C66.5754 10.9775 66.8861 11.8207 67.0567 12.7654C67.1632 13.3559 67.203 13.931 67.176 14.4907C67.1538 15.0434 67.0721 15.5703 66.9309 16.0714C66.7896 16.5724 66.5878 17.0417 66.3253 17.4793C66.0688 17.9158 65.7594 18.3131 65.3973 18.6711L69.2824 21.6006Z" fill="#999999"/>
<path d="M88.4548 19.0394C88.9499 19.1849 89.4177 19.2316 89.8582 19.1796C90.2987 19.1277 90.6982 18.9918 91.0567 18.7719C91.4169 18.5463 91.7298 18.2474 91.9955 17.8751C92.2628 17.4972 92.4709 17.0549 92.6197 16.5483L94.824 9.04436L96.6547 9.58211L94.4504 17.0861C94.2373 17.8114 93.9252 18.4482 93.514 18.9966C93.1027 19.5449 92.6153 19.9802 92.0517 20.3024C91.488 20.6246 90.861 20.8219 90.1706 20.8942C89.4802 20.9666 88.7493 20.8894 87.9779 20.6628C87.2065 20.4362 86.55 20.1058 86.0085 19.6716C85.4669 19.2373 85.0462 18.7323 84.7463 18.1564C84.4465 17.5806 84.2719 16.9508 84.2225 16.2672C84.1732 15.5836 84.2551 14.8791 84.4682 14.1538L86.6725 6.64982L88.5117 7.19011L86.31 14.6854C86.1612 15.192 86.0941 15.6757 86.1088 16.1366C86.1293 16.5991 86.23 17.0226 86.411 17.4072C86.5936 17.7861 86.8561 18.1164 87.1985 18.3984C87.541 18.6803 87.9597 18.894 88.4548 19.0394Z" fill="#999999"/>
<path d="M115.232 29.6071L117.128 24.5859C117.252 24.2386 117.435 23.8239 117.679 23.342C117.458 23.4911 117.247 23.6247 117.046 23.7429C116.849 23.865 116.668 23.9693 116.503 24.0555L111.76 26.5234L115.232 29.6071ZM114.868 35.7233L113.764 34.7432C113.639 34.6317 113.564 34.5086 113.539 34.3741C113.514 34.2396 113.527 34.1071 113.579 33.9765L114.714 30.9766L110.455 27.1937L107.61 28.6756C107.503 28.7329 107.375 28.7596 107.226 28.7557C107.081 28.7473 106.948 28.6893 106.826 28.5817L105.723 27.6016L118.154 21.3567L119.601 22.6415L114.868 35.7233Z" fill="#999999"/>
<path d="M140.797 54.3466L128.74 59.0011L128.137 57.4394L136.718 54.1268C136.847 54.0771 136.985 54.027 137.133 53.9764C137.282 53.9314 137.435 53.8854 137.591 53.8382L128.678 52.6674C128.35 52.6334 128.129 52.4708 128.017 52.1798L127.92 51.9279C127.807 51.6368 127.862 51.3712 128.085 51.131L133.895 44.1898C133.594 44.3444 133.307 44.4746 133.033 44.5805L124.452 47.893L123.846 46.323L135.903 41.6685L136.415 42.9951C136.475 43.1518 136.505 43.2787 136.504 43.3756C136.51 43.476 136.459 43.5923 136.349 43.7247L130.684 50.5423C130.569 50.6769 130.443 50.809 130.307 50.9389C130.17 51.0687 130.033 51.1957 129.894 51.32C130.27 51.31 130.642 51.324 131.01 51.3619L139.749 52.5322C139.917 52.551 140.031 52.5969 140.092 52.6701C140.16 52.7467 140.224 52.8633 140.285 53.0201L140.797 54.3466Z" fill="#999999"/>
</svg>
