<svg width="246" height="200" viewBox="0 0 246 200" fill="none" xmlns="http://www.w3.org/2000/svg">
<line x1="22.2684" y1="148.422" x2="0.268438" y2="162.422" stroke="black"/>
<line x1="22.3057" y1="173.396" x2="0.305725" y2="190.396" stroke="black"/>
<line x1="48.3536" y1="179.354" x2="28.3536" y2="199.354" stroke="black"/>
<line x1="79.3904" y1="179.312" x2="63.3904" y2="199.312" stroke="black"/>
<line x1="79.3536" y1="155.354" x2="63.3536" y2="171.354" stroke="black"/>
<line x1="102.49" y1="179.098" x2="98.4903" y2="199.098" stroke="black"/>
<line x1="116.484" y1="149.127" x2="111.484" y2="168.127" stroke="black"/>
<line x1="134.499" y1="179.025" x2="133.499" y2="199.025" stroke="black"/>
<line x1="160.464" y1="178.814" x2="168.464" y2="198.814" stroke="black"/>
<line x1="146.447" y1="145.776" x2="154.447" y2="161.776" stroke="black"/>
<line x1="192.447" y1="178.776" x2="202.447" y2="198.776" stroke="black"/>
<line x1="222.329" y1="182.624" x2="238.329" y2="196.624" stroke="black"/>
<line x1="227.331" y1="157.625" x2="244.331" y2="172.625" stroke="black"/>
<line x1="173.332" y1="133.626" x2="200.332" y2="157.626" stroke="black"/>
<line x1="230.296" y1="127.597" x2="245.296" y2="138.597" stroke="black"/>
<line x1="227.158" y1="99.5257" x2="245.158" y2="105.526" stroke="black"/>
<line x1="179.107" y1="102.512" x2="211.107" y2="109.512" stroke="black"/>
<line x1="223.884" y1="69.5136" x2="244.884" y2="64.5136" stroke="black"/>
<line x1="221.935" y1="84.5042" x2="244.935" y2="81.5042" stroke="black"/>
<line x1="229.704" y1="46.5968" x2="244.704" y2="35.5968" stroke="black"/>
<path d="M202.677 53.6182L215.677 42.6182" stroke="black"/>
<line x1="229.646" y1="13.6464" x2="242.646" y2="0.646448" stroke="black"/>
<line x1="201.693" y1="31.6053" x2="219.693" y2="17.6053" stroke="black"/>
</svg>
