<svg width="185" height="58" viewBox="0 0 185 58" fill="none" xmlns="http://www.w3.org/2000/svg">
<path d="M141.545 29C141.545 36.9442 139.861 44.1115 137.162 49.2745C134.451 54.4614 130.793 57.5 126.886 57.5C122.98 57.5 119.322 54.4614 116.61 49.2745C113.912 44.1115 112.227 36.9442 112.227 29C112.227 21.0558 113.912 13.8885 116.61 8.72553C119.322 3.53858 122.98 0.5 126.886 0.5C130.793 0.5 134.451 3.53858 137.162 8.72553C139.861 13.8885 141.545 21.0558 141.545 29Z" stroke="#F3F3F3"/>
<path d="M162.636 29C162.636 36.9442 160.952 44.1115 158.253 49.2745C155.542 54.4614 151.884 57.5 147.977 57.5C144.071 57.5 140.413 54.4614 137.701 49.2745C135.002 44.1115 133.318 36.9442 133.318 29C133.318 21.0558 135.002 13.8885 137.701 8.72553C140.413 3.53858 144.071 0.5 147.977 0.5C151.884 0.5 155.542 3.53858 158.253 8.72553C160.952 13.8885 162.636 21.0558 162.636 29Z" stroke="#F3F3F3"/>
<path d="M183.727 29C183.727 36.9442 182.043 44.1115 179.344 49.2745C176.633 54.4614 172.974 57.5 169.068 57.5C165.162 57.5 161.504 54.4614 158.792 49.2745C156.093 44.1115 154.409 36.9442 154.409 29C154.409 21.0558 156.093 13.8885 158.792 8.72553C161.504 3.53858 165.162 0.5 169.068 0.5C172.974 0.5 176.633 3.53858 179.344 8.72553C182.043 13.8885 183.727 21.0558 183.727 29Z" stroke="#F3F3F3"/>
<line x1="0.996063" y1="29.8182" x2="168.405" y2="28.5" stroke="#F3F3F3"/>
</svg>
