<svg width="125" height="121" viewBox="0 0 125 121" fill="none" xmlns="http://www.w3.org/2000/svg">
<circle cx="62" cy="60" r="50" fill="#DA0037"/>
<path d="M41 60.0945C52.2824 59.8965 61.4846 50.9955 62.0576 39.7259L62.0945 39C62.2906 50.568 71.621 59.8984 83.189 60.0945C72.4803 60.7064 63.7188 68.8445 62.3195 79.479L62.0945 81.189C62.2905 70.0204 53.5843 60.7134 42.4274 60.1647L41 60.0945Z" fill="#1E1E1E"/>
<path d="M23.0497 44.1605C23.109 44.2279 23.1245 44.2986 23.0964 44.3728C23.0749 44.4296 23.0075 44.4889 22.8943 44.5507C22.7783 44.6066 22.6433 44.6927 22.4895 44.809C22.3312 44.9237 22.1668 45.081 21.9962 45.2809C21.8273 45.4763 21.6792 45.7421 21.5518 46.0781C21.4245 46.4141 21.36 46.7291 21.3585 47.0229C21.3585 47.3124 21.4084 47.5758 21.5081 47.8132C21.6094 48.0463 21.7518 48.2499 21.9353 48.4243C22.1204 48.5942 22.3329 48.7247 22.5729 48.8157C22.8871 48.9347 23.1716 48.9677 23.4263 48.9145C23.6827 48.857 23.9242 48.7464 24.1509 48.5828C24.3776 48.4191 24.5932 48.2189 24.7978 47.982C24.9996 47.7391 25.204 47.4897 25.4108 47.2337C25.6176 46.9777 25.832 46.7346 26.054 46.5043C26.2733 46.268 26.5116 46.0739 26.7688 45.9218C27.0261 45.7698 27.3082 45.6771 27.6153 45.6438C27.9197 45.6044 28.2617 45.6567 28.6413 45.8006C29.0297 45.9478 29.3706 46.1543 29.6641 46.4202C29.9549 46.6802 30.1788 46.9846 30.336 47.3337C30.4932 47.6827 30.5765 48.0686 30.5859 48.4914C30.591 48.9125 30.5043 49.3587 30.3256 49.83C30.0941 50.4409 29.7879 50.9262 29.407 51.286C29.0218 51.644 28.5787 51.9177 28.0777 52.1072L27.8592 51.8147C27.8136 51.7375 27.804 51.6641 27.8305 51.5942C27.8454 51.555 27.8906 51.5147 27.9661 51.4735C28.0416 51.4322 28.1352 51.3828 28.2468 51.3253C28.3541 51.2662 28.4767 51.1929 28.6146 51.1054C28.7482 51.0163 28.8848 50.9059 29.0246 50.7742C29.16 50.6409 29.2935 50.4794 29.4253 50.2898C29.557 50.1001 29.6733 49.8722 29.7742 49.606C29.9132 49.2395 29.9826 48.8915 29.9827 48.5622C29.9784 48.2312 29.9174 47.9311 29.7999 47.662C29.6839 47.3885 29.5149 47.1497 29.2928 46.9458C29.0663 46.7401 28.8025 46.5803 28.5014 46.4662C28.1741 46.3421 27.8801 46.3081 27.6193 46.3639C27.3559 46.4138 27.113 46.5214 26.8907 46.6867C26.664 46.8503 26.4497 47.0535 26.2479 47.2964C26.0477 47.535 25.8464 47.783 25.6439 48.0407C25.4415 48.2983 25.2306 48.5453 25.0113 48.7816C24.7936 49.0135 24.5562 49.2055 24.2989 49.3575C24.0373 49.5079 23.75 49.6011 23.4369 49.6372C23.1211 49.6672 22.7646 49.6069 22.3675 49.4564C22.0577 49.339 21.7811 49.1668 21.5377 48.9399C21.2944 48.7129 21.1066 48.4446 20.9744 48.135C20.8379 47.8237 20.767 47.4775 20.7618 47.0962C20.7538 46.7089 20.8309 46.3014 20.993 45.8738C21.1749 45.3938 21.4142 44.9929 21.7108 44.6711C22.0091 44.345 22.3748 44.0844 22.8081 43.8893L23.0497 44.1605Z" fill="black"/>
<path d="M31.9893 37.6251C32.2603 37.2861 32.4562 36.9438 32.5771 36.5983C32.6979 36.2528 32.7488 35.9201 32.7298 35.6002C32.7136 35.2766 32.6319 34.9753 32.4846 34.6962C32.3365 34.4105 32.1277 34.1599 31.8579 33.9442C31.2638 33.4693 30.6606 33.2858 30.0485 33.3939C29.4363 33.5019 28.8403 33.9187 28.2604 34.644L27.1108 36.082L30.8397 39.063L31.9893 37.6251ZM27.8175 34.29C28.5431 33.3824 29.2881 32.8577 30.0526 32.7161C30.82 32.5708 31.5718 32.7925 32.3081 33.3811C32.6471 33.6521 32.9078 33.965 33.0901 34.3199C33.2724 34.6748 33.3728 35.0537 33.3911 35.4567C33.4058 35.8569 33.336 36.273 33.1816 36.7053C33.0236 37.1346 32.7756 37.5607 32.4376 37.9835L31.288 39.4215L34.4045 41.9129L33.9543 42.4761L26.2177 36.2911L27.8175 34.29Z" fill="black"/>
<path d="M46.3257 30.7237L46.6364 31.2314L41.6475 34.4481L36.28 26.1235L41.2689 22.9068L41.5913 23.4069L37.2084 26.2329L39.3781 29.598L43.0257 27.2462L43.3405 27.7345L39.693 30.0863L41.931 33.5573L46.3257 30.7237Z" fill="black"/>
<path d="M58.0018 25.9633C58.0472 25.9523 58.0896 25.9588 58.129 25.9829L58.4719 26.2096C58.324 26.4711 58.1529 26.7165 57.9587 26.946C57.768 27.1698 57.5469 27.3769 57.2953 27.5674C57.0472 27.7523 56.763 27.9171 56.4427 28.0618C56.128 28.21 55.7711 28.3324 55.372 28.429C54.7052 28.5903 54.0649 28.6229 53.451 28.5265C52.8406 28.4246 52.2842 28.2087 51.7819 27.879C51.2785 27.5447 50.8421 27.1005 50.4728 26.5465C50.108 25.9914 49.8356 25.3419 49.6555 24.5981C49.4788 23.8678 49.4309 23.1736 49.5117 22.5155C49.5925 21.8573 49.7848 21.2634 50.0888 20.7337C50.3916 20.1995 50.8003 19.7453 51.3147 19.3712C51.828 18.9925 52.4294 18.7197 53.1188 18.5529C53.7765 18.3937 54.3841 18.3547 54.9415 18.4359C55.4988 18.5171 56.0312 18.6931 56.5385 18.9641L56.4017 19.3213C56.3786 19.3845 56.3284 19.4254 56.2513 19.4441C56.1969 19.4573 56.0964 19.4288 55.9498 19.3586C55.8032 19.2885 55.6067 19.2208 55.3605 19.1555C55.1131 19.0857 54.8141 19.0405 54.4634 19.0197C54.1172 18.9979 53.7173 19.0418 53.2637 19.1516C52.6831 19.2921 52.1743 19.5208 51.7373 19.8379C51.3048 20.1538 50.959 20.54 50.6997 20.9964C50.445 21.4518 50.2849 21.9707 50.2194 22.5531C50.1539 23.1355 50.2018 23.7601 50.3631 24.4268C50.5278 25.1072 50.7724 25.6914 51.0969 26.1794C51.426 26.6663 51.8079 27.054 52.2427 27.3425C52.6763 27.6265 53.1508 27.8118 53.6663 27.8983C54.1852 27.9792 54.7168 27.9538 55.2611 27.822C55.6058 27.7386 55.9065 27.6418 56.1631 27.5317C56.4243 27.4205 56.6573 27.2921 56.8621 27.1465C57.067 27.0009 57.251 26.8387 57.4142 26.66C57.5774 26.4813 57.7329 26.2804 57.8806 26.0574C57.8988 26.0338 57.9182 26.0147 57.9387 26.0001C57.9581 25.981 57.9791 25.9687 58.0018 25.9633Z" fill="black"/>
<path d="M64.1896 27.6547L63.4692 27.6258L63.8655 17.7288L64.586 17.7576L64.1896 27.6547Z" fill="black"/>
<path d="M76.5443 26.6653L76.1915 21.2811C76.176 21.104 76.1729 20.8967 76.1822 20.6591C76.1206 20.7567 76.0583 20.8492 75.9952 20.9366C75.9336 21.0195 75.8719 21.095 75.8102 21.1632L72.3348 25.282L76.5443 26.6653ZM77.5026 30.7674L76.9773 30.5948C76.9152 30.5744 76.8693 30.5421 76.8396 30.498C76.8114 30.4494 76.7949 30.3949 76.7902 30.3344L76.5844 27.2384L71.9625 25.7197L69.9605 28.0902C69.9267 28.1331 69.8818 28.165 69.8258 28.1859C69.7699 28.2068 69.7108 28.2071 69.6488 28.1867L69.13 28.0163L76.0726 19.8715L76.7442 20.0922L77.5026 30.7674Z" fill="black"/>
<path d="M86.0263 35.9676L85.6621 36.4556L81.3257 33.2191L87.2503 25.2813L87.8281 25.7125L82.2678 33.1623L86.0263 35.9676Z" fill="black"/>
<path d="M95.8761 51.2634L95.3247 51.4874L92.9619 46.0419L102.048 42.0993L104.411 47.5448L103.865 47.7816L101.79 42.9976L98.1165 44.5913L99.844 48.5727L99.311 48.804L97.5835 44.8226L93.7948 46.4665L95.8761 51.2634Z" fill="black"/>
<path d="M101.986 64.5285C101.222 64.5764 100.528 64.5053 99.9033 64.3153C99.2788 64.1253 98.7394 63.8365 98.2849 63.4488C97.8305 63.0611 97.4709 62.5834 97.2062 62.0155C96.9418 61.4522 96.7877 60.8213 96.7439 60.1227L96.5177 56.5107L106.403 55.8914L106.63 59.5034C106.673 60.202 106.599 60.8472 106.407 61.439C106.215 62.0355 105.918 62.5545 105.516 62.9958C105.113 63.4372 104.614 63.7911 104.018 64.0575C103.422 64.324 102.745 64.481 101.986 64.5285ZM101.939 63.788C102.629 63.7448 103.237 63.6108 103.766 63.386C104.294 63.1612 104.734 62.8625 105.084 62.4898C105.435 62.1172 105.693 61.6802 105.858 61.1789C106.023 60.6776 106.087 60.1312 106.05 59.5397L105.869 56.6474L97.1426 57.194L97.3238 60.0863C97.3609 60.6778 97.4925 61.212 97.7188 61.6888C97.945 62.1656 98.2554 62.5669 98.6499 62.8929C99.0444 63.2189 99.5177 63.4604 100.07 63.6175C100.622 63.7746 101.245 63.8315 101.939 63.788Z" fill="black"/>
<path d="M95.8207 70.1639L95.9826 69.4614L105.635 71.6852L105.473 72.3878L95.8207 70.1639Z" fill="black"/>
<path d="M99.0316 86.1639L100.676 83.0981L92.4842 78.7039L92.825 78.0686L101.017 82.4628L102.671 79.3785L103.208 79.6664L99.5683 86.4518L99.0316 86.1639Z" fill="black"/>
<path d="M87.0738 85.994L87.5696 85.4706L94.7611 92.2817L94.2653 92.8052L87.0738 85.994Z" fill="black"/>
<path d="M77.3157 98.7867C76.9407 98.1195 76.6998 97.4573 76.5928 96.8001C76.488 96.147 76.5081 95.5255 76.653 94.9355C76.8002 94.3496 77.0686 93.808 77.4583 93.3107C77.8461 92.8197 78.3452 92.4028 78.9554 92.0599C79.5657 91.7169 80.1813 91.5075 80.8024 91.4315C81.4258 91.3595 82.0259 91.413 82.6029 91.592C83.1822 91.775 83.7235 92.081 84.2269 92.5101C84.7326 92.9432 85.1729 93.4934 85.5479 94.1606C85.9205 94.8237 86.1592 95.4818 86.2639 96.135C86.3709 96.7921 86.3508 97.4137 86.2037 97.9996C86.0588 98.5895 85.7935 99.132 85.4079 99.6271C85.0224 100.122 84.5244 100.541 83.9142 100.884C83.304 101.227 82.6872 101.434 82.0638 101.506C81.4387 101.585 80.8365 101.532 80.2572 101.349C79.6779 101.166 79.1354 100.858 78.6298 100.425C78.1263 99.9959 77.6883 99.4498 77.3157 98.7867ZM77.9625 98.4232C78.3009 99.0253 78.6883 99.5195 79.1249 99.9059C79.5615 100.292 80.0261 100.566 80.5187 100.729C81.0112 100.891 81.5203 100.939 82.0458 100.874C82.5735 100.813 83.0957 100.637 83.6124 100.347C84.125 100.059 84.5446 99.7054 84.8712 99.2863C85.2001 98.8713 85.4254 98.4102 85.5471 97.9028C85.6647 97.3977 85.6741 96.8572 85.5752 96.2811C85.4722 95.7073 85.2516 95.1193 84.9132 94.5172C84.5726 93.9111 84.184 93.4148 83.7474 93.0285C83.309 92.6485 82.8436 92.3775 82.351 92.2153C81.8543 92.0555 81.3432 92.0081 80.8178 92.0732C80.2923 92.1383 79.7733 92.3149 79.2606 92.603C78.744 92.8933 78.3212 93.246 77.9923 93.661C77.6635 94.076 77.4402 94.536 77.3226 95.0411C77.2049 95.5461 77.1964 96.0835 77.2971 96.6532C77.4001 97.227 77.6219 97.817 77.9625 98.4232Z" fill="black"/>
<path d="M63.9075 106.516L62.6188 96.6954L62.952 96.6516C63.0121 96.6438 63.0642 96.6463 63.1083 96.6594C63.1484 96.6777 63.1902 96.7098 63.2339 96.7559L70.7306 104.442C70.6985 104.305 70.6743 104.174 70.6579 104.049L69.5732 95.7828L70.1979 95.7009L71.4865 105.522L71.1326 105.568C71.0678 105.577 71.018 105.574 70.9832 105.559C70.9443 105.55 70.9004 105.521 70.8515 105.471L63.3714 97.8039C63.4035 97.9409 63.4278 98.0718 63.4442 98.1967L64.5252 106.435L63.9075 106.516Z" fill="black"/>
<path d="M20.3937 56.6918L20.3937 61.6955C20.3937 82.4632 35.8002 100.008 56.3937 102.692V102.692" stroke="#1E1E1E"/>
</svg>
