<svg width="170" height="52" viewBox="0 0 170 52" fill="none" xmlns="http://www.w3.org/2000/svg">
<path d="M39.4064 25.5642C39.4064 32.5562 40.9576 38.8614 43.4404 43.4009C45.9333 47.9589 49.2955 50.6284 52.8885 50.6284C56.4814 50.6284 59.8436 47.9589 62.3366 43.4009C64.8194 38.8614 66.3705 32.5562 66.3705 25.5642C66.3705 18.5722 64.8194 12.2669 62.3366 7.7275C59.8436 3.16946 56.4814 0.5 52.8885 0.5C49.2955 0.5 45.9333 3.16946 43.4404 7.7275C40.9576 12.2669 39.4064 18.5722 39.4064 25.5642Z" stroke="#1E1E1E"/>
<path d="M19.9532 25.5642C19.9532 32.5562 21.5043 38.8614 23.9871 43.4009C26.4801 47.9589 29.8422 50.6284 33.4352 50.6284C37.0282 50.6284 40.3904 47.9589 42.8833 43.4009C45.3661 38.8614 46.9172 32.5562 46.9172 25.5642C46.9172 18.5722 45.3661 12.2669 42.8833 7.7275C40.3904 3.16946 37.0282 0.5 33.4352 0.5C29.8422 0.5 26.4801 3.16946 23.9871 7.7275C21.5043 12.2669 19.9532 18.5722 19.9532 25.5642Z" stroke="#1E1E1E"/>
<path d="M0.500076 25.5642C0.500076 32.5562 2.0512 38.8614 4.53399 43.4009C7.02695 47.9589 10.3891 50.6284 13.9821 50.6284C17.5751 50.6284 20.9372 47.9589 23.4302 43.4009C25.913 38.8614 27.4641 32.5562 27.4641 25.5642C27.4641 18.5722 25.913 12.2669 23.4302 7.7275C20.9372 3.16946 17.5751 0.5 13.9821 0.5C10.3891 0.5 7.02695 3.16946 4.53399 7.7275C2.0512 12.2669 0.500076 18.5722 0.500076 25.5642Z" stroke="#1E1E1E"/>
<line y1="-0.5" x2="154.414" y2="-0.5" transform="matrix(-0.999967 -0.00811534 -0.00763939 0.999971 169 26.7261)" stroke="#1E1E1E"/>
</svg>
