<svg width="156" height="59" viewBox="0 0 156 59" fill="none" xmlns="http://www.w3.org/2000/svg">
<path d="M20.4534 42.9155L14.7095 40.7283C14.448 40.6391 14.1476 40.5214 13.8083 40.3754C13.469 40.2293 13.1086 40.0649 12.727 39.8821C12.967 40.228 13.1863 40.5613 13.3849 40.8818C13.5773 41.197 13.7392 41.4805 13.8705 41.732L16.8361 47.085L20.4534 42.9155ZM29.1378 42.9036L27.5022 44.7889C27.3187 45.0004 27.1179 45.1281 26.8998 45.1719C26.6757 45.2105 26.4563 45.1949 26.2415 45.125L22.7182 43.7842L18.0078 49.2136L19.8325 52.5124C19.9295 52.6813 19.9752 52.8851 19.9694 53.1237C19.9637 53.3623 19.8716 53.5843 19.6934 53.7897L18.042 55.6932L9.40959 39.1646L11.5643 36.681L29.1378 42.9036Z" fill="#1E1E1E"/>
<path d="M41.0752 31.2915L42.5589 33.504L34.1172 39.1649L24.453 24.7532L27.134 22.9554L35.3145 35.1545L41.0752 31.2915Z" fill="#1E1E1E"/>
<path d="M51.9939 29.2846L48.991 30.5013L42.475 14.4192L45.4779 13.2025L51.9939 29.2846Z" fill="#1E1E1E"/>
<path d="M61.4409 17.2788C61.5669 18.2224 61.8071 19.0539 62.1614 19.7734C62.5147 20.4849 62.9602 21.0711 63.4979 21.532C64.0425 21.9838 64.6664 22.3041 65.3696 22.4927C66.0806 22.6802 66.8565 22.7179 67.697 22.6056C68.5375 22.4934 69.2723 22.254 69.9013 21.8876C70.5383 21.52 71.0563 21.0473 71.4553 20.4694C71.8533 19.8836 72.1294 19.201 72.2836 18.4218C72.4368 17.6346 72.4503 16.7692 72.3243 15.8255C72.1983 14.8819 71.9587 14.0544 71.6054 13.3429C71.2511 12.6234 70.805 12.0333 70.2673 11.5724C69.7296 11.1115 69.1052 10.7873 68.3941 10.5998C67.691 10.4112 66.9191 10.373 66.0786 10.4852C65.238 10.5974 64.4993 10.8373 63.8623 11.2049C63.2333 11.5714 62.7158 12.048 62.3099 12.6349C61.912 13.2207 61.6364 13.9073 61.4833 14.6945C61.329 15.4737 61.3149 16.3352 61.4409 17.2788ZM78.0852 27.2355L75.4446 27.588C75.064 27.6389 74.7122 27.6334 74.3891 27.5716C74.074 27.5087 73.7711 27.3555 73.4803 27.1118L70.587 24.6653C70.1974 24.8303 69.7922 24.9691 69.3715 25.0818C68.9586 25.1934 68.5222 25.2799 68.0623 25.3414C66.7618 25.515 65.5472 25.4552 64.4185 25.162C63.2887 24.8609 62.2868 24.3692 61.4128 23.6869C60.5468 23.0035 59.8321 22.1546 59.2689 21.1402C58.7046 20.1179 58.3383 18.9764 58.17 17.7156C58.0016 16.4547 58.0561 15.261 58.3334 14.1344C58.6097 12.9999 59.076 11.9893 59.7325 11.1026C60.3968 10.2148 61.2351 9.48143 62.2474 8.90236C63.2586 8.31536 64.4144 7.93504 65.7149 7.76139C66.5871 7.64492 67.4216 7.63841 68.2183 7.74188C69.0139 7.83741 69.7578 8.02864 70.4499 8.31557C71.1409 8.59457 71.7756 8.96582 72.354 9.42934C72.9393 9.88387 73.4538 10.4124 73.8975 11.015C74.3411 11.6176 74.705 12.2873 74.989 13.0242C75.281 13.7601 75.4831 14.5482 75.5953 15.3888C75.698 16.1579 75.7172 16.906 75.6528 17.6329C75.5874 18.3519 75.4448 19.0368 75.225 19.6876C75.0131 20.3374 74.7275 20.9485 74.3681 21.5211C74.0077 22.0858 73.5799 22.599 73.0846 23.0606L78.0852 27.2355Z" fill="#1E1E1E"/>
<path d="M91.4418 23.141C92.055 23.2563 92.6207 23.2568 93.1387 23.1425C93.6646 23.0298 94.1274 22.8197 94.5271 22.5122C94.9268 22.2048 95.2626 21.8039 95.5346 21.3097C95.8145 20.8169 96.0158 20.2442 96.1385 19.5917L98.0586 9.3786L101.231 9.97505L99.3109 20.1881C99.1202 21.2023 98.7784 22.1108 98.2856 22.9136C97.8021 23.71 97.1947 24.365 96.4631 24.8787C95.741 25.386 94.9103 25.7345 93.971 25.9242C93.0333 26.1061 92.018 26.0943 90.9251 25.8888C89.8244 25.6819 88.8702 25.3234 88.0626 24.8134C87.2564 24.2955 86.605 23.6683 86.1086 22.9319C85.6214 22.1891 85.2933 21.3582 85.1242 20.4391C84.9645 19.5137 84.9799 18.5438 85.1706 17.5296L87.0908 7.31654L90.2632 7.91299L88.3452 18.1143C88.2226 18.7668 88.1982 19.3728 88.2721 19.932C88.3539 20.4928 88.5244 20.9929 88.7837 21.4324C89.0523 21.8655 89.4072 22.2293 89.8483 22.5239C90.2974 22.82 90.8285 23.0257 91.4418 23.141Z" fill="#1E1E1E"/>
<path d="M116.525 28.1402L117.345 22.0488C117.372 21.7739 117.418 21.4546 117.483 21.0909C117.547 20.7272 117.625 20.3388 117.716 19.9256C117.434 20.2382 117.16 20.5277 116.893 20.7941C116.63 21.0534 116.391 21.2757 116.176 21.4608L111.64 25.5691L116.525 28.1402ZM118.517 36.593L116.308 35.4304C116.061 35.3 115.891 35.1337 115.798 34.9313C115.71 34.7219 115.675 34.5047 115.694 34.2797L116.196 30.5435L109.835 27.1954L107.039 29.7243C106.897 29.8574 106.709 29.9483 106.475 29.9971C106.242 30.0459 106.005 30.0069 105.764 29.8802L103.534 28.7065L117.658 16.532L120.568 18.0635L118.517 36.593Z" fill="#1E1E1E"/>
<path d="M148.981 41.9109L136.338 53.7948L134.39 51.7224L142.557 44.0464C142.883 43.7396 143.252 43.4256 143.664 43.1044L132.894 46.0307C132.38 46.1732 131.948 46.0579 131.597 45.6849L131.285 45.3526C130.934 44.9795 130.846 44.541 131.02 44.037L134.593 33.4002C134.417 33.5985 134.241 33.7911 134.065 33.9781C133.89 34.1651 133.723 34.3326 133.566 34.4805L125.399 42.1565L123.451 40.0842L136.095 28.2003L137.763 29.9754C137.862 30.0803 137.944 30.1734 138.009 30.2546C138.075 30.3359 138.123 30.4166 138.155 30.4968C138.192 30.5829 138.206 30.6739 138.197 30.7698C138.194 30.8716 138.171 30.9869 138.127 31.1157L134.664 41.5013C134.571 41.7757 134.463 42.0468 134.342 42.3147C134.226 42.5885 134.101 42.8648 133.968 43.1436C134.26 43.0225 134.547 42.9125 134.827 42.8137C135.113 42.7093 135.396 42.6191 135.676 42.5428L146.189 39.6936C146.321 39.658 146.437 39.6418 146.539 39.645C146.641 39.6481 146.731 39.6679 146.809 39.7043C146.892 39.7465 146.973 39.8027 147.05 39.873C147.127 39.9433 147.215 40.0309 147.313 40.1359L148.981 41.9109Z" fill="#1E1E1E"/>
</svg>
