<svg width="116" height="121" viewBox="0 0 116 121" fill="none" xmlns="http://www.w3.org/2000/svg">
<path d="M14.0497 44.1605C14.109 44.2279 14.1245 44.2986 14.0964 44.3728C14.0749 44.4296 14.0075 44.4889 13.8943 44.5507C13.7783 44.6066 13.6433 44.6927 13.4895 44.809C13.3312 44.9237 13.1668 45.081 12.9962 45.2809C12.8273 45.4763 12.6792 45.7421 12.5518 46.0781C12.4245 46.4141 12.36 46.7291 12.3585 47.0229C12.3585 47.3124 12.4084 47.5758 12.5081 47.8132C12.6094 48.0463 12.7518 48.2499 12.9353 48.4243C13.1204 48.5942 13.3329 48.7247 13.5729 48.8157C13.8871 48.9347 14.1716 48.9677 14.4263 48.9145C14.6827 48.857 14.9242 48.7464 15.1509 48.5828C15.3776 48.4191 15.5932 48.2189 15.7978 47.982C15.9996 47.7391 16.204 47.4897 16.4108 47.2337C16.6176 46.9777 16.832 46.7346 17.054 46.5043C17.2733 46.268 17.5116 46.0739 17.7688 45.9218C18.0261 45.7698 18.3082 45.6771 18.6153 45.6438C18.9197 45.6044 19.2617 45.6567 19.6413 45.8006C20.0297 45.9478 20.3706 46.1543 20.6641 46.4202C20.9549 46.6802 21.1788 46.9846 21.336 47.3337C21.4932 47.6827 21.5765 48.0686 21.5859 48.4914C21.591 48.9125 21.5043 49.3587 21.3256 49.83C21.0941 50.4409 20.7879 50.9262 20.407 51.286C20.0218 51.644 19.5787 51.9177 19.0777 52.1072L18.8592 51.8147C18.8136 51.7375 18.804 51.6641 18.8305 51.5942C18.8454 51.555 18.8906 51.5147 18.9661 51.4735C19.0416 51.4322 19.1352 51.3828 19.2468 51.3253C19.3541 51.2662 19.4767 51.1929 19.6146 51.1054C19.7482 51.0163 19.8848 50.9059 20.0246 50.7742C20.16 50.6409 20.2935 50.4794 20.4253 50.2898C20.557 50.1001 20.6733 49.8722 20.7742 49.606C20.9132 49.2395 20.9826 48.8915 20.9827 48.5622C20.9784 48.2312 20.9174 47.9311 20.7999 47.662C20.6839 47.3885 20.5149 47.1497 20.2928 46.9458C20.0663 46.7401 19.8025 46.5803 19.5014 46.4662C19.1741 46.3421 18.8801 46.3081 18.6193 46.3639C18.3559 46.4138 18.113 46.5214 17.8907 46.6867C17.664 46.8503 17.4497 47.0535 17.2479 47.2964C17.0477 47.535 16.8464 47.783 16.6439 48.0407C16.4415 48.2983 16.2306 48.5453 16.0113 48.7816C15.7936 49.0135 15.5562 49.2055 15.2989 49.3575C15.0373 49.5079 14.75 49.6011 14.4369 49.6372C14.1211 49.6672 13.7646 49.6069 13.3675 49.4564C13.0577 49.339 12.7811 49.1668 12.5377 48.9399C12.2944 48.7129 12.1066 48.4446 11.9744 48.135C11.8379 47.8237 11.767 47.4775 11.7618 47.0962C11.7538 46.7089 11.8309 46.3014 11.993 45.8738C12.1749 45.3938 12.4142 44.9929 12.7108 44.6711C13.0091 44.345 13.3748 44.0844 13.8081 43.8893L14.0497 44.1605Z" fill="black"/>
<path d="M22.9893 37.6251C23.2603 37.2861 23.4562 36.9438 23.5771 36.5983C23.6979 36.2528 23.7488 35.9201 23.7298 35.6002C23.7136 35.2766 23.6319 34.9753 23.4846 34.6962C23.3365 34.4105 23.1277 34.1599 22.8579 33.9442C22.2638 33.4693 21.6606 33.2858 21.0485 33.3939C20.4363 33.5019 19.8403 33.9187 19.2604 34.644L18.1108 36.082L21.8397 39.063L22.9893 37.6251ZM18.8175 34.29C19.5431 33.3824 20.2881 32.8577 21.0526 32.7161C21.82 32.5708 22.5718 32.7925 23.3081 33.3811C23.6471 33.6521 23.9078 33.965 24.0901 34.3199C24.2724 34.6748 24.3728 35.0537 24.3911 35.4567C24.4058 35.8569 24.336 36.273 24.1816 36.7053C24.0236 37.1346 23.7756 37.5607 23.4376 37.9835L22.288 39.4215L25.4045 41.9129L24.9543 42.4761L17.2177 36.2911L18.8175 34.29Z" fill="black"/>
<path d="M37.3257 30.7237L37.6364 31.2314L32.6475 34.4481L27.28 26.1235L32.2689 22.9068L32.5913 23.4069L28.2084 26.2329L30.3781 29.598L34.0257 27.2462L34.3405 27.7345L30.693 30.0863L32.931 33.5573L37.3257 30.7237Z" fill="black"/>
<path d="M49.0018 25.9633C49.0472 25.9523 49.0896 25.9588 49.129 25.9829L49.4719 26.2096C49.324 26.4711 49.1529 26.7165 48.9587 26.946C48.768 27.1698 48.5469 27.3769 48.2953 27.5674C48.0472 27.7523 47.763 27.9171 47.4427 28.0618C47.128 28.21 46.7711 28.3324 46.372 28.429C45.7052 28.5903 45.0649 28.6229 44.451 28.5265C43.8406 28.4246 43.2842 28.2087 42.7819 27.879C42.2785 27.5447 41.8421 27.1005 41.4728 26.5465C41.108 25.9914 40.8356 25.3419 40.6555 24.5981C40.4788 23.8678 40.4309 23.1736 40.5117 22.5155C40.5925 21.8573 40.7848 21.2634 41.0888 20.7337C41.3916 20.1995 41.8003 19.7453 42.3147 19.3712C42.828 18.9925 43.4294 18.7197 44.1188 18.5529C44.7765 18.3937 45.3841 18.3547 45.9415 18.4359C46.4988 18.5171 47.0312 18.6931 47.5385 18.9641L47.4017 19.3213C47.3786 19.3845 47.3284 19.4254 47.2513 19.4441C47.1969 19.4573 47.0964 19.4288 46.9498 19.3586C46.8032 19.2885 46.6067 19.2208 46.3605 19.1555C46.1131 19.0857 45.8141 19.0405 45.4634 19.0197C45.1172 18.9979 44.7173 19.0418 44.2637 19.1516C43.6831 19.2921 43.1743 19.5208 42.7373 19.8379C42.3048 20.1538 41.959 20.54 41.6997 20.9964C41.445 21.4518 41.2849 21.9707 41.2194 22.5531C41.1539 23.1355 41.2018 23.7601 41.3631 24.4268C41.5278 25.1072 41.7724 25.6914 42.0969 26.1794C42.426 26.6663 42.8079 27.054 43.2427 27.3425C43.6763 27.6265 44.1508 27.8118 44.6663 27.8983C45.1852 27.9792 45.7168 27.9538 46.2611 27.822C46.6058 27.7386 46.9065 27.6418 47.1631 27.5317C47.4243 27.4205 47.6573 27.2921 47.8621 27.1465C48.067 27.0009 48.251 26.8387 48.4142 26.66C48.5774 26.4813 48.7329 26.2804 48.8806 26.0574C48.8988 26.0338 48.9182 26.0147 48.9387 26.0001C48.9581 25.981 48.9791 25.9687 49.0018 25.9633Z" fill="black"/>
<path d="M55.1896 27.6547L54.4692 27.6258L54.8655 17.7288L55.586 17.7576L55.1896 27.6547Z" fill="black"/>
<path d="M67.5443 26.6653L67.1915 21.2811C67.176 21.104 67.1729 20.8967 67.1822 20.6591C67.1206 20.7567 67.0583 20.8492 66.9952 20.9366C66.9336 21.0195 66.8719 21.095 66.8102 21.1632L63.3348 25.282L67.5443 26.6653ZM68.5026 30.7674L67.9773 30.5948C67.9152 30.5744 67.8693 30.5421 67.8396 30.498C67.8114 30.4494 67.7949 30.3949 67.7902 30.3344L67.5844 27.2384L62.9625 25.7197L60.9605 28.0902C60.9267 28.1331 60.8818 28.165 60.8258 28.1859C60.7699 28.2068 60.7108 28.2071 60.6488 28.1867L60.13 28.0163L67.0726 19.8715L67.7442 20.0922L68.5026 30.7674Z" fill="black"/>
<path d="M77.0263 35.9676L76.6621 36.4556L72.3257 33.2191L78.2503 25.2813L78.8281 25.7125L73.2678 33.1623L77.0263 35.9676Z" fill="black"/>
<path d="M86.8761 51.2634L86.3247 51.4874L83.9619 46.0419L93.0484 42.0993L95.4112 47.5448L94.8654 47.7816L92.7896 42.9976L89.1165 44.5913L90.844 48.5727L90.311 48.804L88.5835 44.8226L84.7948 46.4665L86.8761 51.2634Z" fill="black"/>
<path d="M92.9857 64.5285C92.2218 64.5764 91.5277 64.5053 90.9033 64.3153C90.2788 64.1253 89.7394 63.8365 89.2849 63.4488C88.8305 63.0611 88.4709 62.5834 88.2062 62.0155C87.9418 61.4522 87.7877 60.8213 87.7439 60.1227L87.5177 56.5107L97.4033 55.8914L97.6296 59.5034C97.6733 60.202 97.5992 60.8472 97.4072 61.439C97.2154 62.0355 96.9183 62.5545 96.5157 62.9958C96.1132 63.4372 95.614 63.7911 95.0182 64.0575C94.4224 64.324 93.7448 64.481 92.9857 64.5285ZM92.9393 63.788C93.6286 63.7448 94.2374 63.6108 94.7657 63.386C95.294 63.1612 95.7335 62.8625 96.0843 62.4898C96.435 62.1172 96.6928 61.6802 96.8578 61.1789C97.0228 60.6776 97.0868 60.1312 97.0497 59.5397L96.8685 56.6474L88.1426 57.194L88.3238 60.0863C88.3609 60.6778 88.4925 61.212 88.7188 61.6888C88.945 62.1656 89.2554 62.5669 89.6499 62.8929C90.0444 63.2189 90.5177 63.4604 91.07 63.6175C91.6222 63.7746 92.2453 63.8315 92.9393 63.788Z" fill="black"/>
<path d="M86.8207 70.1639L86.9826 69.4614L96.6347 71.6852L96.4728 72.3878L86.8207 70.1639Z" fill="black"/>
<path d="M90.0316 86.1639L91.6761 83.0981L83.4842 78.7039L83.825 78.0686L92.0169 82.4628L93.6714 79.3785L94.208 79.6664L90.5683 86.4518L90.0316 86.1639Z" fill="black"/>
<path d="M78.0738 85.994L78.5696 85.4706L85.7611 92.2817L85.2653 92.8052L78.0738 85.994Z" fill="black"/>
<path d="M68.3157 98.7867C67.9407 98.1195 67.6998 97.4573 67.5928 96.8001C67.488 96.147 67.5081 95.5255 67.653 94.9355C67.8002 94.3496 68.0686 93.808 68.4583 93.3107C68.8461 92.8197 69.3452 92.4028 69.9554 92.0599C70.5657 91.7169 71.1813 91.5075 71.8024 91.4315C72.4258 91.3595 73.0259 91.413 73.6029 91.592C74.1822 91.775 74.7235 92.081 75.2269 92.5101C75.7326 92.9432 76.1729 93.4934 76.5479 94.1606C76.9205 94.8237 77.1592 95.4818 77.2639 96.135C77.3709 96.7921 77.3508 97.4137 77.2037 97.9996C77.0588 98.5895 76.7935 99.132 76.4079 99.6271C76.0224 100.122 75.5244 100.541 74.9142 100.884C74.304 101.227 73.6872 101.434 73.0638 101.506C72.4387 101.585 71.8365 101.532 71.2572 101.349C70.6779 101.166 70.1354 100.858 69.6298 100.425C69.1263 99.9959 68.6883 99.4498 68.3157 98.7867ZM68.9625 98.4232C69.3009 99.0253 69.6883 99.5195 70.1249 99.9059C70.5615 100.292 71.0261 100.566 71.5187 100.729C72.0112 100.891 72.5203 100.939 73.0458 100.874C73.5735 100.813 74.0957 100.637 74.6124 100.347C75.125 100.059 75.5446 99.7054 75.8712 99.2863C76.2001 98.8713 76.4254 98.4102 76.5471 97.9028C76.6647 97.3977 76.6741 96.8572 76.5752 96.2811C76.4722 95.7073 76.2516 95.1193 75.9132 94.5172C75.5726 93.9111 75.184 93.4148 74.7474 93.0285C74.309 92.6485 73.8436 92.3775 73.351 92.2153C72.8543 92.0555 72.3432 92.0081 71.8178 92.0732C71.2923 92.1383 70.7733 92.3149 70.2606 92.603C69.744 92.8933 69.3212 93.246 68.9923 93.661C68.6635 94.076 68.4402 94.536 68.3226 95.0411C68.2049 95.5461 68.1964 96.0835 68.2971 96.6532C68.4001 97.227 68.6219 97.817 68.9625 98.4232Z" fill="black"/>
<path d="M54.9075 106.516L53.6188 96.6954L53.952 96.6516C54.0121 96.6438 54.0642 96.6463 54.1083 96.6594C54.1484 96.6777 54.1902 96.7098 54.2339 96.7559L61.7306 104.442C61.6985 104.305 61.6743 104.174 61.6579 104.049L60.5732 95.7828L61.1979 95.7009L62.4865 105.522L62.1326 105.568C62.0678 105.577 62.018 105.574 61.9832 105.559C61.9443 105.55 61.9004 105.521 61.8515 105.471L54.3714 97.8039C54.4035 97.9409 54.4278 98.0718 54.4442 98.1967L55.5252 106.435L54.9075 106.516Z" fill="black"/>
</svg>
